<?xml version="1.0" encoding="iso-8859-1"?>
<!-- Generator: Adobe Illustrator 19.0.0, SVG Export Plug-In . SVG Version: 6.00 Build 0)  -->
<svg xmlns="http://www.w3.org/2000/svg" xmlns:xlink="http://www.w3.org/1999/xlink" version="1.1" id="Capa_1" x="0px" y="0px" viewBox="0 0 480 480" style="enable-background:new 0 0 480 480;" xml:space="preserve" width="512px" height="512px">
<g>
	<g>
		<path d="M472,160c-4.418,0-8,3.582-8,8h-16c0-4.418-3.582-8-8-8s-8,3.582-8,8h-16c0-4.418-3.582-8-8-8s-8,3.582-8,8h-16    c0-4.418-3.582-8-8-8s-8,3.582-8,8h-16c0-4.418-3.582-8-8-8s-8,3.582-8,8h-16v-32h-48v16h-32v16H0v144h240v16h32v16h48v-32h16    c0,4.418,3.582,8,8,8s8-3.582,8-8h16c0,4.418,3.582,8,8,8s8-3.582,8-8h16c0,4.418,3.582,8,8,8s8-3.582,8-8h16c0,4.418,3.582,8,8,8    s8-3.582,8-8h16c0,4.418,3.582,8,8,8s8-3.582,8-8V168C480,163.582,476.418,160,472,160z M240,296H16V184h224V296z M272,312h-16    V168h16V312z M304,328h-16V152h16V328z M336,296h-16V184h16V296z M368,296h-16V184h16V296z M400,296h-16V184h16V296z M432,296h-16    V184h16V296z M464,296h-16V184h16V296z" fill="#FFFFFF"/>
	</g>
</g>
<g>
</g>
<g>
</g>
<g>
</g>
<g>
</g>
<g>
</g>
<g>
</g>
<g>
</g>
<g>
</g>
<g>
</g>
<g>
</g>
<g>
</g>
<g>
</g>
<g>
</g>
<g>
</g>
<g>
</g>
</svg>
