<svg xmlns="http://www.w3.org/2000/svg" version="1.1" xmlns:xlink="http://www.w3.org/1999/xlink" xmlns:svgjs="http://svgjs.com/svgjs" height="80" width="352.0999755859375"><defs id="SvgjsDefs2346"></defs><g id="SvgjsG2347" rel="mainfill" name="main_text" xmlns:name="main_text" transform="translate(93.54999995231628,-199.5250015258789)" fill="#0067da"><path d="M5.53 240L5.53 231.89L11.60 231.89L15.67 235.93L15.67 240L19.72 240L19.72 233.92L15.67 229.85L19.72 225.78L19.72 219.64L15.67 219.64L15.67 223.74L11.60 227.82L5.53 227.82L5.53 219.64L1.45 219.64L1.45 240ZM26.40 235.93L26.40 223.72L36.55 223.72L36.55 235.93ZM38.59 240L40.60 237.99L40.60 221.71L38.59 219.64L24.34 219.64L22.33 221.71L22.33 237.99L24.34 240ZM47.57 240L47.57 226.27L53.01 234.10L56.41 234.10L61.74 226.27L61.74 240L65.81 240L65.81 219.64L61.88 219.64L54.67 229.50L47.57 219.64L43.50 219.64L43.50 240ZM72.79 240L72.79 223.72L82.93 223.72L82.93 240L86.98 240L86.98 219.64L68.71 219.64L68.71 240ZM107.16 240L107.16 235.93L93.96 235.93L93.96 231.89L106.14 231.89L106.14 227.82L93.96 227.82L93.96 223.72L107.16 223.72L107.16 219.64L89.88 219.64L89.88 240ZM113.85 240L113.85 231.89L124.00 231.89L124.00 240L128.04 240L128.04 219.64L124.00 219.64L124.00 227.82L113.85 227.82L113.85 219.64L109.78 219.64L109.78 240ZM147.20 240L149.21 237.99L149.21 233.92L145.16 233.92L145.16 235.93L135.02 235.93L135.02 223.72L145.16 223.72L145.16 225.75L149.21 225.75L149.21 221.71L147.20 219.64L132.95 219.64L130.95 221.71L130.95 237.99L132.95 240ZM155.60 229.85L155.60 227.82L159.65 223.72L165.75 223.72L165.75 229.85ZM155.60 240L155.60 233.92L165.75 233.92L165.75 240L169.80 240L169.80 219.64L157.61 219.64L151.53 225.78L151.53 240ZM183.03 240L183.03 223.72L190.09 223.72L190.09 219.64L171.83 219.64L171.83 223.72L178.96 223.72L178.96 240ZM196.20 235.93L196.20 223.72L206.35 223.72L206.35 235.93ZM208.38 240L210.39 237.99L210.39 221.71L208.38 219.64L194.13 219.64L192.13 221.71L192.13 237.99L194.13 240ZM217.37 229.85L217.37 223.72L227.52 223.72L227.52 229.85ZM217.37 240L217.37 233.92L229.55 233.92L231.56 231.89L231.56 221.71L229.55 219.64L213.30 219.64L213.30 240ZM238.25 235.93L238.25 229.85L248.40 229.85L248.40 235.93ZM250.43 240L252.44 237.99L252.44 227.82L250.43 225.78L238.25 225.78L238.25 219.64L234.18 219.64L234.18 240ZM258.55 240L258.55 219.64L254.50 219.64L254.50 240Z" fill="#0067da" style="fill: rgb(0, 103, 218);"></path></g><g id="SvgjsG2348" rel="mainfill" name="slogan_text" xmlns:name="slogan_text" transform="translate(94.3299999833107,-180.11499786376953)" fill="#0067da"><path d="M2.55 238.12L2.55 232.47L7.25 232.47L7.25 238.12ZM8.19 240L9.12 239.07L9.12 231.54L8.19 230.59L1.60 230.59L0.67 231.54L0.67 239.07L1.60 240ZM17.72 240L17.72 232.47L22.41 232.47L22.41 240L24.28 240L24.28 230.59L15.84 230.59L15.84 240ZM35.78 240L35.78 232.47L39.04 232.47L39.04 230.59L30.60 230.59L30.60 232.47L33.89 232.47L33.89 240ZM47.24 238.12L47.24 232.47L51.94 232.47L51.94 238.12ZM52.88 240L53.80 239.07L53.80 231.54L52.88 230.59L46.29 230.59L45.36 231.54L45.36 239.07L46.29 240ZM62.41 240L62.41 233.65L64.92 237.27L66.50 237.27L68.96 233.65L68.96 240L70.84 240L70.84 230.59L69.02 230.59L65.69 235.15L62.41 230.59L60.53 230.59L60.53 240Z" fill="#0067da" style="fill: rgb(0, 103, 218);"></path></g><g id="SvgjsG2349" rel="mainfill" name="symbol" xmlns:name="symbol_mainfill" transform="translate(-10,-10) scale(1)" fill="#0067da"><path d="M53.333,10v6.692c16.85,1.68,30,15.951,30,33.308c0,17.354-13.15,31.624-30,33.304V90C73.864,88.298,90,71.052,90,50  C90,28.945,73.864,11.706,53.333,10z" fill="#0067da" style="fill: rgb(0, 103, 218);"></path><path d="M46.667,83.304c-16.843-1.68-30-15.95-30-33.304c0-17.356,13.157-31.628,30-33.308V10C26.14,11.706,10,28.945,10,50  c0,21.052,16.14,38.298,36.667,40V83.304z" fill="#0067da" style="fill: rgb(0, 103, 218);"></path><path d="M30.3,46.667C31.888,37.21,40.091,30,50,30s18.112,7.21,19.7,16.667h6.735C74.795,33.516,63.601,23.333,50,23.333  c-13.594,0-24.792,10.183-26.436,23.334H30.3z" fill="#0067da" style="fill: rgb(0, 103, 218);"></path><path d="M69.7,53.333C68.112,62.786,59.909,70,50,70s-18.112-7.214-19.7-16.667h-6.735C25.208,66.484,36.406,76.667,50,76.667  c13.601,0,24.795-10.183,26.436-23.334H69.7z" fill="#0067da" style="fill: rgb(0, 103, 218);"></path><path d="M50,36.667c-7.363,0-13.333,5.97-13.333,13.333S42.637,63.333,50,63.333c7.366,0,13.333-5.97,13.333-13.333  S57.366,36.667,50,36.667z M50,56.667c-3.682,0-6.667-2.985-6.667-6.667s2.985-6.667,6.667-6.667c3.685,0,6.667,2.985,6.667,6.667  S53.685,56.667,50,56.667z" fill="#0067da" style="fill: rgb(0, 103, 218);"></path></g></svg>