<svg xmlns="http://www.w3.org/2000/svg"><defs><style>.cls-1{fill:#0067da;fill-rule:evenodd}</style></defs><symbol id="avatar" viewBox="0 0 482.9 482.9"><g fill="#0067da"><path d="M239.7 260.2h3.2c29.3-.5 53-10.8 70.5-30.5 38.5-43.4 32.1-117.8 31.4-124.9-2.5-53.3-27.7-78.8-48.5-90.7C280.8 5.2 262.7.4 242.5 0H240.8c-11.1 0-32.9 1.8-53.8 13.7-21 11.9-46.6 37.4-49.1 91.1-.7 7.1-7.1 81.5 31.4 124.9 17.4 19.7 41.1 30 70.4 30.5zm-75.1-152.9c0-.3.1-.6.1-.8 3.3-71.7 54.2-79.4 76-79.4H241.9c27 .6 72.9 11.6 76 79.4 0 .3 0 .6.1.8.1.7 7.1 68.7-24.7 104.5-12.6 14.2-29.4 21.2-51.5 21.4h-1c-22-.2-38.9-7.2-51.4-21.4-31.7-35.6-24.9-103.9-24.8-104.5z"/><path d="M446.8 383.6v-.3c0-.8-.1-1.6-.1-2.5-.6-19.8-1.9-66.1-45.3-80.9-.3-.1-.7-.2-1-.3-45.1-11.5-82.6-37.5-83-37.8-6.1-4.3-14.5-2.8-18.8 3.3-4.3 6.1-2.8 14.5 3.3 18.8 1.7 1.2 41.5 28.9 91.3 41.7 23.3 8.3 25.9 33.2 26.6 56 0 .9 0 1.7.1 2.5.1 9-.5 22.9-2.1 30.9-16.2 9.2-79.7 41-176.3 41-96.2 0-160.1-31.9-176.4-41.1-1.6-8-2.3-21.9-2.1-30.9 0-.8.1-1.6.1-2.5.7-22.8 3.3-47.7 26.6-56 49.8-12.8 89.6-40.6 91.3-41.7 6.1-4.3 7.6-12.7 3.3-18.8-4.3-6.1-12.7-7.6-18.8-3.3-.4.3-37.7 26.3-83 37.8-.4.1-.7.2-1 .3-43.4 14.9-44.7 61.2-45.3 80.9 0 .9 0 1.7-.1 2.5v.3c-.1 5.2-.2 31.9 5.1 45.3 1 2.6 2.8 4.8 5.2 6.3 3 2 74.9 47.8 195.2 47.8s192.2-45.9 195.2-47.8c2.3-1.5 4.2-3.7 5.2-6.3 5-13.3 4.9-40 4.8-45.2z"/></g></symbol><symbol id="calendar" viewBox="0 0 60 60"><g fill="#006DF0"><path d="M57 4h-7V1a1 1 0 0 0-1-1h-7a1 1 0 0 0-1 1v3H19V1a1 1 0 0 0-1-1h-7a1 1 0 0 0-1 1v3H3a1 1 0 0 0-1 1v54a1 1 0 0 0 1 1h54a1 1 0 0 0 1-1V5a1 1 0 0 0-1-1zM43 2h5v6h-5V2zM12 2h5v6h-5V2zM4 6h6v3a1 1 0 0 0 1 1h7a1 1 0 0 0 1-1V6h22v3a1 1 0 0 0 1 1h7a1 1 0 0 0 1-1V6h6v9H4V6zm0 52V17h52v41H4z"/><path d="M38 23H11v29h38V23H38zm-7 2h7v7h-7v-7zm7 16h-7v-7h7v7zm-16-7h7v7h-7v-7zm0-9h7v7h-7v-7zm-9 0h7v7h-7v-7zm0 9h7v7h-7v-7zm7 16h-7v-7h7v7zm9 0h-7v-7h7v7zm9 0h-7v-7h7v7zm9 0h-7v-7h7v7zm0-9h-7v-7h7v7zm0-16v7h-7v-7h7z"/></g></symbol><symbol id="download" viewBox="0 0 471.2 471.2"><g fill="#0067da"><path d="M457.7 230.15c-7.5 0-13.5 6-13.5 13.5v122.8c0 33.4-27.2 60.5-60.5 60.5H87.5c-33.4 0-60.5-27.2-60.5-60.5v-124.8c0-7.5-6-13.5-13.5-13.5s-13.5 6-13.5 13.5v124.8c0 48.3 39.3 87.5 87.5 87.5h296.2c48.3 0 87.5-39.3 87.5-87.5v-122.8c0-7.4-6-13.5-13.5-13.5z"/><path d="M226.1 346.75c2.6 2.6 6.1 4 9.5 4s6.9-1.3 9.5-4l85.8-85.8c5.3-5.3 5.3-13.8 0-19.1-5.3-5.3-13.8-5.3-19.1 0l-62.7 62.8V30.75c0-7.5-6-13.5-13.5-13.5s-13.5 6-13.5 13.5v273.9l-62.8-62.8c-5.3-5.3-13.8-5.3-19.1 0-5.3 5.3-5.3 13.8 0 19.1l85.9 85.8z"/></g></symbol><symbol id="envelope" viewBox="0 0 483.3 483.3"><g fill="#0067da"><path d="M424.3 57.75H59.1c-32.6 0-59.1 26.5-59.1 59.1v249.6c0 32.6 26.5 59.1 59.1 59.1h365.1c32.6 0 59.1-26.5 59.1-59.1v-249.5c.1-32.6-26.4-59.2-59-59.2zm32.1 308.7c0 17.7-14.4 32.1-32.1 32.1H59.1c-17.7 0-32.1-14.4-32.1-32.1v-249.5c0-17.7 14.4-32.1 32.1-32.1h365.1c17.7 0 32.1 14.4 32.1 32.1v249.5h.1z"/><path d="M304.8 238.55l118.2-106c5.5-5 6-13.5 1-19.1-5-5.5-13.5-6-19.1-1l-163 146.3-31.8-28.4c-.1-.1-.2-.2-.2-.3-.7-.7-1.4-1.3-2.2-1.9L78.3 112.35c-5.6-5-14.1-4.5-19.1 1.1-5 5.6-4.5 14.1 1.1 19.1l119.6 106.9-119.1 111.5c-5.4 5.1-5.7 13.6-.6 19.1 2.7 2.8 6.3 4.3 9.9 4.3 3.3 0 6.6-1.2 9.2-3.6l120.9-113.1 32.8 29.3c2.6 2.3 5.8 3.4 9 3.4s6.5-1.2 9-3.5l33.7-30.2 120.2 114.2c2.6 2.5 6 3.7 9.3 3.7 3.6 0 7.1-1.4 9.8-4.2 5.1-5.4 4.9-14-.5-19.1l-118.7-112.7z"/></g></symbol><symbol id="facebook-logo" viewBox="0 0 96.124 96.123"><path d="M72.089.02L59.624 0C45.62 0 36.57 9.285 36.57 23.656v10.907H24.037a1.96 1.96 0 0 0-1.96 1.961v15.803a1.96 1.96 0 0 0 1.96 1.96H36.57v39.876a1.96 1.96 0 0 0 1.96 1.96h16.352a1.96 1.96 0 0 0 1.96-1.96V54.287h14.654a1.96 1.96 0 0 0 1.96-1.96l.006-15.803a1.963 1.963 0 0 0-1.961-1.961H56.842v-9.246c0-4.444 1.059-6.7 6.848-6.7l8.397-.003a1.96 1.96 0 0 0 1.959-1.96V1.98A1.96 1.96 0 0 0 72.089.02z"/></symbol><symbol id="hand-shake" viewBox="0 0 512 512"><path d="M404.267 315.41c-10.048-20.949-45.995-50.027-80.725-78.123-19.371-15.659-37.675-30.464-49.344-42.133-2.923-2.944-7.296-3.883-11.157-2.496-7.189 2.603-11.627 4.608-15.125 6.165-5.333 2.389-7.125 3.2-14.315 3.925a10.663 10.663 0 0 0-7.808 4.672c-15.083 22.549-30.699 20.629-41.131 17.131-3.328-1.109-3.925-2.539-4.245-3.904-2.24-9.365 9.003-31.168 23.573-45.739 34.667-34.688 52.544-43.371 90.304-26.496 42.837 19.157 85.76 34.155 86.187 34.304a10.654 10.654 0 0 0 13.589-6.571c1.92-5.568-1.003-11.648-6.571-13.589-.427-.149-42.496-14.848-84.48-33.643-48.917-21.867-75.755-7.467-114.091 30.891-14.592 14.592-34.411 44.117-29.291 65.771 2.197 9.216 8.683 16.043 18.325 19.221 24.171 7.979 46.229.341 62.656-21.461 6.784-1.045 10.475-2.581 16.021-5.077a209.95 209.95 0 0 1 7.467-3.2c12.203 11.456 28.672 24.789 46.016 38.805 31.36 25.365 66.923 54.123 74.923 70.763 3.947 8.213-.299 13.568-3.179 16.021-4.224 3.627-10.005 4.779-13.141 2.581-3.456-2.368-7.957-2.517-11.52-.384a10.66 10.66 0 0 0-5.141 10.304c.725 6.784-5.483 10.667-8.171 12.011-6.827 3.456-13.952 2.859-16.619.384-2.987-2.773-7.275-3.584-11.072-2.176-3.797 1.429-6.443 4.928-6.827 8.981-.64 6.997-5.824 13.717-12.587 16.341-3.264 1.237-8 1.984-12.245-1.899a10.791 10.791 0 0 0-9.749-2.475 10.65 10.65 0 0 0-7.488 6.72c-.405 1.067-1.323 3.627-11.307 3.627-7.104 0-19.883-4.8-26.133-8.939-7.488-4.928-54.443-39.957-94.997-73.92-5.696-4.8-15.552-15.083-24.256-24.171-7.723-8.064-14.784-15.381-18.411-18.453-4.544-3.84-11.264-3.264-15.04 1.259-3.797 4.501-3.243 11.243 1.259 15.04 3.307 2.795 9.707 9.557 16.768 16.917 9.515 9.941 19.349 20.224 25.963 25.771 39.723 33.259 87.467 69.163 96.981 75.413 7.851 5.163 24.768 12.416 37.867 12.416 10.517 0 18.603-2.411 24.213-7.125 7.509 2.923 16.043 2.944 24.256-.256 9.707-3.755 17.685-11.328 22.208-20.501 8.405 1.792 18.027.533 26.773-3.861 8.555-4.309 14.741-10.901 17.813-18.603 8.491.448 17.237-2.56 24.469-8.768 12.247-10.474 15.617-26.772 8.535-41.471z" fill="#FFF"/><path d="M213.333 138.663h-96c-5.888 0-10.667 4.779-10.667 10.667s4.779 10.667 10.667 10.667h96c5.888 0 10.667-4.779 10.667-10.667s-4.779-10.667-10.667-10.667zM435.52 292.711c-3.307-4.885-9.92-6.229-14.805-2.901l-31.189 20.949c-4.885 3.285-6.187 9.92-2.901 14.805a10.717 10.717 0 0 0 8.875 4.715c2.027 0 4.096-.576 5.931-1.813l31.189-20.949c4.884-3.286 6.185-9.92 2.9-14.806zM369.301 343.613c-7.637-6.016-41.792-40.981-62.912-62.997-4.075-4.267-10.837-4.416-15.083-.32-4.267 4.075-4.395 10.837-.32 15.083 5.483 5.717 53.845 56.128 65.088 65.003a10.623 10.623 0 0 0 6.592 2.283c3.136 0 6.272-1.408 8.405-4.075 3.649-4.609 2.86-11.329-1.77-14.977zM326.677 365.01c-12.779-10.219-44.885-44.331-52.139-52.224-4.011-4.352-10.731-4.608-15.083-.64-4.331 3.989-4.629 10.752-.64 15.083.384.405 38.699 41.771 54.528 54.443a10.72 10.72 0 0 0 6.656 2.325c3.115 0 6.229-1.387 8.341-3.989 3.671-4.609 2.924-11.329-1.663-14.998zM284.224 386.493c-15.211-12.821-46.336-45.952-52.416-52.459-4.032-4.309-10.795-4.544-15.083-.512-4.309 4.032-4.523 10.773-.512 15.083 8.747 9.365 38.528 40.939 54.251 54.208a10.638 10.638 0 0 0 6.869 2.517c3.029 0 6.059-1.301 8.171-3.797 3.797-4.523 3.221-11.243-1.28-15.04z" fill="#FFF"/><path d="M124.672 120.253C106.389 102.93 33.28 97.319 11.307 96.018c-3.029-.149-5.824.853-7.957 2.88A10.662 10.662 0 0 0 0 106.663v192c0 5.888 4.779 10.667 10.667 10.667h64c4.608 0 8.704-2.965 10.133-7.36 1.557-4.779 38.315-117.589 43.157-173.056.278-3.243-.917-6.443-3.285-8.661zM66.88 287.997H21.333V118.098c34.283 2.709 71.275 8.597 84.715 15.125-5.653 46.72-31.232 129.728-39.168 154.774zM501.333 117.33c-83.755 0-130.219 21.44-132.16 22.336-2.773 1.301-4.843 3.712-5.696 6.635s-.427 6.059 1.173 8.661c13.184 21.227 54.464 139.115 62.4 167.872a10.665 10.665 0 0 0 10.283 7.829h64c5.888 0 10.667-4.779 10.667-10.667v-192a10.657 10.657 0 0 0-10.667-10.666zm-10.666 192h-45.355c-10.112-32.939-39.979-118.827-56.64-154.325 16.277-5.525 51.243-15.019 101.995-16.213V309.33z" fill="#FFF"/></symbol><symbol id="house" viewBox="0 0 486.196 486.196"><path d="M481.708 220.456l-228.8-204.6c-.4-.4-.8-.7-1.3-1-5-4.8-13-5-18.3-.3l-228.8 204.6c-5.6 5-6 13.5-1.1 19.1 2.7 3 6.4 4.5 10.1 4.5 3.2 0 6.4-1.1 9-3.4l41.2-36.9v238.6c0 18.7 15.2 34 34 34H169.908c17.6 0 31.9-14.3 31.9-31.9v-121.3c0-2.7 2.2-4.9 4.9-4.9h72.9c2.7 0 4.9 2.2 4.9 4.9v121.3c0 17.6 14.3 31.9 31.9 31.9h72.2c19 0 34-18.7 34-42.6v-228.7l41.2 36.9c2.6 2.3 5.8 3.4 9 3.4 3.7 0 7.4-1.5 10.1-4.5 4.8-5.6 4.3-14.1-1.2-19.1zm-86.2 66.7v145.1c0 9.7-4.8 15.6-7 15.6h-72.2c-2.7 0-4.9-2.2-4.9-4.9v-121.1c0-17.6-14.3-31.9-31.9-31.9h-72.9c-17.6 0-31.9 14.3-31.9 31.9v121.3c0 2.7-2.2 4.9-4.9 4.9H97.608c-3.8 0-7-3.1-7-7v-262.8l151.8-135.6 153.1 136.9v107.6z" fill="#0067da"/></symbol><symbol id="icon-menu-cross" viewBox="0 0 23.867 23.867"><path fill="#0067da" d="M15.087 11.933l8.56-8.559a.75.75 0 0 0 0-1.061L21.554.22a.747.747 0 0 0-1.06 0l-8.561 8.56L3.373.22a.771.771 0 0 0-1.061 0L.22 2.313a.75.75 0 0 0 0 1.061l8.56 8.559-8.56 8.559a.751.751 0 0 0 0 1.062l2.093 2.094a.744.744 0 0 0 1.06 0l8.561-8.56 8.56 8.56a.746.746 0 0 0 1.06 0l2.093-2.094a.751.751 0 0 0 0-1.062l-8.56-8.559z"/></symbol><symbol id="icon-menu-ham" viewBox="0 0 30 19"><path class="cls-1" d="M0 0h30v3H0V0zm0 8h30v3H0V8zm0 8h30v3H0v-3z"/></symbol><symbol id="instagram" viewBox="0 0 512 512"><path d="M437 0H75C33.648 0 0 33.648 0 75v362c0 41.352 33.648 75 75 75h362c41.352 0 75-33.648 75-75V75c0-41.352-33.648-75-75-75zM257 390c-74.441 0-135-60.559-135-135s60.559-135 135-135 135 60.559 135 135-60.559 135-135 135zm150-240c-24.813 0-45-20.188-45-45s20.188-45 45-45 45 20.188 45 45-20.188 45-45 45zm0 0"/><path d="M407 90c-8.277 0-15 6.723-15 15s6.723 15 15 15 15-6.723 15-15-6.723-15-15-15zm0 0M257 150c-57.89 0-105 47.11-105 105s47.11 105 105 105 105-47.11 105-105-47.11-105-105-105zm0 0"/></symbol><symbol id="like" viewBox="0 0 478.2 478.2"><path d="M457.575 325.1c9.8-12.5 14.5-25.9 13.9-39.7-.6-15.2-7.4-27.1-13-34.4 6.5-16.2 9-41.7-12.7-61.5-15.9-14.5-42.9-21-80.3-19.2-26.3 1.2-48.3 6.1-49.2 6.3h-.1c-5 .9-10.3 2-15.7 3.2-.4-6.4.7-22.3 12.5-58.1 14-42.6 13.2-75.2-2.6-97-16.6-22.9-43.1-24.7-50.9-24.7-7.5 0-14.4 3.1-19.3 8.8-11.1 12.9-9.8 36.7-8.4 47.7-13.2 35.4-50.2 122.2-81.5 146.3-.6.4-1.1.9-1.6 1.4-9.2 9.7-15.4 20.2-19.6 29.4-5.9-3.2-12.6-5-19.8-5h-61c-23 0-41.6 18.7-41.6 41.6v162.5c0 23 18.7 41.6 41.6 41.6h61c8.9 0 17.2-2.8 24-7.6l23.5 2.8c3.6.5 67.6 8.6 133.3 7.3 11.9.9 23.1 1.4 33.5 1.4 17.9 0 33.5-1.4 46.5-4.2 30.6-6.5 51.5-19.5 62.1-38.6 8.1-14.6 8.1-29.1 6.8-38.3 19.9-18 23.4-37.9 22.7-51.9-.4-8.1-2.2-15-4.1-20.1zm-409.3 122.2c-8.1 0-14.6-6.6-14.6-14.6V270.1c0-8.1 6.6-14.6 14.6-14.6h61c8.1 0 14.6 6.6 14.6 14.6v162.5c0 8.1-6.6 14.6-14.6 14.6h-61v.1zm383.7-133.9c-4.2 4.4-5 11.1-1.8 16.3 0 .1 4.1 7.1 4.6 16.7.7 13.1-5.6 24.7-18.8 34.6-4.7 3.6-6.6 9.8-4.6 15.4 0 .1 4.3 13.3-2.7 25.8-6.7 12-21.6 20.6-44.2 25.4-18.1 3.9-42.7 4.6-72.9 2.2h-1.4c-64.3 1.4-129.3-7-130-7.1h-.1l-10.1-1.2c.6-2.8.9-5.8.9-8.8V270.1c0-4.3-.7-8.5-1.9-12.4 1.8-6.7 6.8-21.6 18.6-34.3 44.9-35.6 88.8-155.7 90.7-160.9.8-2.1 1-4.4.6-6.7-1.7-11.2-1.1-24.9 1.3-29 5.3.1 19.6 1.6 28.2 13.5 10.2 14.1 9.8 39.3-1.2 72.7-16.8 50.9-18.2 77.7-4.9 89.5 6.6 5.9 15.4 6.2 21.8 3.9 6.1-1.4 11.9-2.6 17.4-3.5.4-.1.9-.2 1.3-.3 30.7-6.7 85.7-10.8 104.8 6.6 16.2 14.8 4.7 34.4 3.4 36.5-3.7 5.6-2.6 12.9 2.4 17.4.1.1 10.6 10 11.1 23.3.4 8.9-3.8 18-12.5 27z" fill="#0067da"/></symbol><symbol id="magnifying-glass" viewBox="0 0 451 451"><path d="M447.05 428l-109.6-109.6c29.4-33.8 47.2-77.9 47.2-126.1C384.65 86.2 298.35 0 192.35 0 86.25 0 .05 86.3.05 192.3s86.3 192.3 192.3 192.3c48.2 0 92.3-17.8 126.1-47.2L428.05 447c2.6 2.6 6.1 4 9.5 4s6.9-1.3 9.5-4c5.2-5.2 5.2-13.8 0-19zM26.95 192.3c0-91.2 74.2-165.3 165.3-165.3 91.2 0 165.3 74.2 165.3 165.3s-74.1 165.4-165.3 165.4c-91.1 0-165.3-74.2-165.3-165.4z" fill="#0067da"/></symbol><symbol id="next" viewBox="0 0 477.175 477.175"><path d="M360.731 229.075l-225.1-225.1c-5.3-5.3-13.8-5.3-19.1 0s-5.3 13.8 0 19.1l215.5 215.5-215.5 215.5c-5.3 5.3-5.3 13.8 0 19.1 2.6 2.6 6.1 4 9.5 4 3.4 0 6.9-1.3 9.5-4l225.1-225.1c5.3-5.2 5.3-13.8.1-19z" fill="#0067da"/></symbol><symbol id="package" viewBox="0 0 512 512"><path d="M155.999 370.002c-5.52 0-10 4.48-10 10s4.48 10 10 10 10-4.48 10-10-4.48-10-10-10z" fill="#0067da"/><path d="M450.143 190.001l58.929-58.929a10 10 0 0 0-4.122-16.626l-143.5-44.29C348.514 28.575 310.066.002 265.999.002c-40.964 0-77.6 24.965-92.763 62.625L7.022 114.455a10 10 0 0 0-4.094 16.618l60.479 60.479-38.144 63.575a10.001 10.001 0 0 0 5.413 14.632l55.323 18.44v153.802a10 10 0 0 0 6.489 9.363c33.827 12.684 159.512 59.822 160.187 60.061a9.962 9.962 0 0 0 6.398.089c.029-.01.059-.016.088-.026l180-60a10.001 10.001 0 0 0 6.838-9.487v-157.92l58.998-18.54a10 10 0 0 0 4.074-16.611l-58.928-58.929zm-84.144-89.999c0-2.541-.107-5.076-.298-7.603l117.494 36.265-49.897 49.896-81.528-27.173c9.232-15.431 14.229-33.237 14.229-51.385zM190.326 73.974c11.101-32.282 41.512-53.972 75.673-53.972 36.801 0 68.719 24.892 77.618 60.532a80.446 80.446 0 0 1 2.382 19.468c0 18.574-6.164 35.983-17.828 50.352-15.277 18.842-37.938 29.648-62.172 29.648-26.196 0-50.767-12.858-65.733-34.404-9.333-13.406-14.267-29.174-14.267-45.596 0-8.931 1.455-17.688 4.327-26.028zM28.764 128.625l138.3-43.124a100.825 100.825 0 0 0-1.065 14.5c0 16.101 3.814 31.696 11.084 45.767L78.7 178.56l-49.936-49.935zm20.063 126.102l31.62-52.702 160.563 53.521-31.619 52.702-160.564-53.521zm197.172 232.845l-140-52.5V294.866c110.15 36.522 104.771 35.407 107.838 35.407 3.438 0 6.73-1.779 8.577-4.856l23.585-39.311v201.466zm10-248.111l-148.376-49.458 80.794-26.93c18.91 23.247 47.377 36.929 77.582 36.929 27.942 0 54.203-11.499 73.092-31.759l65.284 21.759-148.376 49.459zm170 195.333l-160 53.333v-209.62l35.451 44.31a10.002 10.002 0 0 0 10.807 3.293l113.742-35.743v144.427zM312.791 304.979l-40.024-50.026 160.531-53.51 49.964 49.964-170.471 53.572z" fill="#0067da"/><path d="M219.511 392.198l-22.24-8.34c-5.171-1.938-10.935.681-12.875 5.852-1.939 5.172.681 10.936 5.852 12.875l22.24 8.34c5.182 1.942 10.939-.69 12.875-5.852 1.939-5.171-.681-10.936-5.852-12.875zM219.51 434.918l-60-22.5c-5.171-1.939-10.935.681-12.875 5.852-1.94 5.171.681 10.936 5.852 12.875l60 22.5a9.975 9.975 0 0 0 3.51.64c4.049 0 7.859-2.477 9.365-6.492 1.94-5.172-.68-10.936-5.852-12.875zM323.071 62.93c-3.905-3.906-10.237-3.905-14.143 0l-52.929 52.93-12.929-12.929c-3.905-3.905-10.237-3.905-14.143 0-3.906 3.905-3.905 10.237 0 14.143l20.001 19.999c3.905 3.905 10.237 3.905 14.143 0l60-60c3.905-3.905 3.905-10.237 0-14.143z" fill="#0067da"/></symbol><symbol id="phone-call" viewBox="0 0 473.806 473.806"><g fill="#0067da"><path d="M374.456 293.506c-9.7-10.1-21.4-15.5-33.8-15.5-12.3 0-24.1 5.3-34.2 15.4l-31.6 31.5c-2.6-1.4-5.2-2.7-7.7-4-3.6-1.8-7-3.5-9.9-5.3-29.6-18.8-56.5-43.3-82.3-75-12.5-15.8-20.9-29.1-27-42.6 8.2-7.5 15.8-15.3 23.2-22.8 2.8-2.8 5.6-5.7 8.4-8.5 21-21 21-48.2 0-69.2l-27.3-27.3c-3.1-3.1-6.3-6.3-9.3-9.5-6-6.2-12.3-12.6-18.8-18.6-9.7-9.6-21.3-14.7-33.5-14.7s-24 5.1-34 14.7l-.2.2-34 34.3c-12.8 12.8-20.1 28.4-21.7 46.5-2.4 29.2 6.2 56.4 12.8 74.2 16.2 43.7 40.4 84.2 76.5 127.6 43.8 52.3 96.5 93.6 156.7 122.7 23 10.9 53.7 23.8 88 26 2.1.1 4.3.2 6.3.2 23.1 0 42.5-8.3 57.7-24.8.1-.2.3-.3.4-.5 5.2-6.3 11.2-12 17.5-18.1 4.3-4.1 8.7-8.4 13-12.9 9.9-10.3 15.1-22.3 15.1-34.6 0-12.4-5.3-24.3-15.4-34.3l-54.9-55.1zm35.8 105.3c-.1 0-.1.1 0 0-3.9 4.2-7.9 8-12.2 12.2-6.5 6.2-13.1 12.7-19.3 20-10.1 10.8-22 15.9-37.6 15.9-1.5 0-3.1 0-4.6-.1-29.7-1.9-57.3-13.5-78-23.4-56.6-27.4-106.3-66.3-147.6-115.6-34.1-41.1-56.9-79.1-72-119.9-9.3-24.9-12.7-44.3-11.2-62.6 1-11.7 5.5-21.4 13.8-29.7l34.1-34.1c4.9-4.6 10.1-7.1 15.2-7.1 6.3 0 11.4 3.8 14.6 7l.3.3c6.1 5.7 11.9 11.6 18 17.9 3.1 3.2 6.3 6.4 9.5 9.7l27.3 27.3c10.6 10.6 10.6 20.4 0 31-2.9 2.9-5.7 5.8-8.6 8.6-8.4 8.6-16.4 16.6-25.1 24.4-.2.2-.4.3-.5.5-8.6 8.6-7 17-5.2 22.7l.3.9c7.1 17.2 17.1 33.4 32.3 52.7l.1.1c27.6 34 56.7 60.5 88.8 80.8 4.1 2.6 8.3 4.7 12.3 6.7 3.6 1.8 7 3.5 9.9 5.3.4.2.8.5 1.2.7 3.4 1.7 6.6 2.5 9.9 2.5 8.3 0 13.5-5.2 15.2-6.9l34.2-34.2c3.4-3.4 8.8-7.5 15.1-7.5 6.2 0 11.3 3.9 14.4 7.3l.2.2 55.1 55.1c10.3 10.2 10.3 20.7.1 31.3zM256.056 112.706c26.2 4.4 50 16.8 69 35.8s31.3 42.8 35.8 69c1.1 6.6 6.8 11.2 13.3 11.2.8 0 1.5-.1 2.3-.2 7.4-1.2 12.3-8.2 11.1-15.6-5.4-31.7-20.4-60.6-43.3-83.5s-51.8-37.9-83.5-43.3c-7.4-1.2-14.3 3.7-15.6 11s3.5 14.4 10.9 15.6zM473.256 209.006c-8.9-52.2-33.5-99.7-71.3-137.5s-85.3-62.4-137.5-71.3c-7.3-1.3-14.2 3.7-15.5 11-1.2 7.4 3.7 14.3 11.1 15.6 46.6 7.9 89.1 30 122.9 63.7 33.8 33.8 55.8 76.3 63.7 122.9 1.1 6.6 6.8 11.2 13.3 11.2.8 0 1.5-.1 2.3-.2 7.3-1.1 12.3-8.1 11-15.4z"/></g></symbol><symbol id="pipe" viewBox="0 0 480 480"><path d="M472 160a8 8 0 0 0-8 8h-16a8 8 0 0 0-16 0h-16a8 8 0 0 0-16 0h-16a8 8 0 0 0-16 0h-16a8 8 0 0 0-16 0h-16v-32h-48v16h-32v16H0v144h240v16h32v16h48v-32h16a8 8 0 0 0 16 0h16a8 8 0 0 0 16 0h16a8 8 0 0 0 16 0h16a8 8 0 0 0 16 0h16a8 8 0 0 0 16 0V168a8 8 0 0 0-8-8zM240 296H16V184h224v112zm32 16h-16V168h16v144zm32 16h-16V152h16v176zm32-32h-16V184h16v112zm32 0h-16V184h16v112zm32 0h-16V184h16v112zm32 0h-16V184h16v112zm32 0h-16V184h16v112z" fill="#FFF"/></symbol><symbol id="placeholder" viewBox="0 0 477 477"><g fill="#0067da"><path d="M238.4 0C133 0 47.2 85.8 47.2 191.2c0 12 1.1 24.1 3.4 35.9.1.7.5 2.8 1.3 6.4 2.9 12.9 7.2 25.6 12.8 37.7 20.6 48.5 65.9 123 165.3 202.8 2.5 2 5.5 3 8.5 3s6-1 8.5-3c99.3-79.8 144.7-154.3 165.3-202.8 5.6-12.1 9.9-24.7 12.8-37.7.8-3.6 1.2-5.7 1.3-6.4 2.2-11.8 3.4-23.9 3.4-35.9C429.6 85.8 343.8 0 238.4 0zm161.2 222.4c0 .2-.1.4-.1.6-.1.5-.4 2-.9 4.3v.2c-2.5 11.2-6.2 22.1-11.1 32.6-.1.1-.1.3-.2.4-18.7 44.3-59.7 111.9-148.9 185.6-89.2-73.7-130.2-141.3-148.9-185.6-.1-.1-.1-.3-.2-.4-4.8-10.4-8.5-21.4-11.1-32.6v-.2c-.6-2.3-.8-3.8-.9-4.3 0-.2-.1-.4-.1-.7-2-10.3-3-20.7-3-31.2 0-90.5 73.7-164.2 164.2-164.2s164.2 73.7 164.2 164.2c0 10.6-1 21.1-3 31.3z"/><path d="M238.4 71.9c-66.9 0-121.4 54.5-121.4 121.4s54.5 121.4 121.4 121.4 121.4-54.5 121.4-121.4S305.3 71.9 238.4 71.9zm0 215.8c-52.1 0-94.4-42.4-94.4-94.4s42.4-94.4 94.4-94.4 94.4 42.4 94.4 94.4-42.3 94.4-94.4 94.4z"/></g></symbol><symbol id="portfolio" viewBox="0 -31 512 512"><path d="M497.094 60.004c-.031 0-.063-.004-.094-.004H361V45c0-24.813-20.188-45-45-45H196c-24.813 0-45 20.188-45 45v15H15C6.648 60 0 66.844 0 75v330c0 24.813 20.188 45 45 45h422c24.813 0 45-20.188 45-45V75.316v-.058c-.574-9.852-6.633-15.2-14.906-15.254zM181 45c0-8.27 6.73-15 15-15h120c8.27 0 15 6.73 15 15v15H181zm295.188 45l-46.583 139.742A14.975 14.975 0 0 1 415.38 240H331v-15c0-8.285-6.715-15-15-15H196c-8.285 0-15 6.715-15 15v15H96.621a14.975 14.975 0 0 1-14.226-10.258L35.813 90zM301 240v30h-90v-30zm181 165c0 8.27-6.73 15-15 15H45c-8.27 0-15-6.73-15-15V167.434l23.934 71.796A44.935 44.935 0 0 0 96.62 270H181v15c0 8.285 6.715 15 15 15h120c8.285 0 15-6.715 15-15v-15h84.379a44.935 44.935 0 0 0 42.687-30.77L482 167.434zm0 0" fill="#FFF"/></symbol><symbol id="quote-white" viewBox="0 0 512 512"><path d="M477.626 230.931c-21.458-21.851-49.904-34.501-80.375-35.812-.144-1.904-.251-4.528-.251-8.119 0-14.712 11.188-59.665 18.241-84.544L422.458 77h-87.584l-5.867 9.453C326.68 90.203 272 179.852 272 315c0 66.168 53.832 120 120 120s120-53.832 120-120c0-31.641-12.208-61.497-34.374-84.069zM392 395c-44.112 0-80-35.888-80-80 0-99.32 32.836-172.834 45.812-198h12.129C364.194 139.584 357 171.041 357 187c0 12.664.94 22.838 5.531 31.33 4.089 7.564 12.641 16.573 30.183 16.669l.873.022C436.824 235.859 472 271.737 472 315c0 44.112-35.888 80-80 80zM205.626 230.931c-21.458-21.851-49.904-34.501-80.375-35.812-.144-1.904-.251-4.528-.251-8.119 0-14.712 11.188-59.665 18.241-84.544L150.458 77H62.874l-5.867 9.453C54.68 90.203 0 179.852 0 315c0 66.168 53.832 120 120 120s120-53.832 120-120c0-31.641-12.208-61.497-34.374-84.069zM120 395c-44.112 0-80-35.888-80-80 0-99.32 32.836-172.834 45.812-198h12.129C92.194 139.584 85 171.041 85 187c0 12.664.94 22.838 5.531 31.33 4.089 7.564 12.641 16.573 30.183 16.669l.873.022C164.824 235.859 200 271.737 200 315c0 44.112-35.888 80-80 80z" fill="#fff"/></symbol><symbol id="quote" viewBox="0 0 512 512"><path d="M477.626 230.931c-21.458-21.851-49.904-34.501-80.375-35.812-.144-1.904-.251-4.528-.251-8.119 0-14.712 11.188-59.665 18.241-84.544L422.458 77h-87.584l-5.867 9.453C326.68 90.203 272 179.852 272 315c0 66.168 53.832 120 120 120s120-53.832 120-120c0-31.641-12.208-61.497-34.374-84.069zM392 395c-44.112 0-80-35.888-80-80 0-99.32 32.836-172.834 45.812-198h12.129C364.194 139.584 357 171.041 357 187c0 12.664.94 22.838 5.531 31.33 4.089 7.564 12.641 16.573 30.183 16.669l.873.022C436.824 235.859 472 271.737 472 315c0 44.112-35.888 80-80 80zM205.626 230.931c-21.458-21.851-49.904-34.501-80.375-35.812-.144-1.904-.251-4.528-.251-8.119 0-14.712 11.188-59.665 18.241-84.544L150.458 77H62.874l-5.867 9.453C54.68 90.203 0 179.852 0 315c0 66.168 53.832 120 120 120s120-53.832 120-120c0-31.641-12.208-61.497-34.374-84.069zM120 395c-44.112 0-80-35.888-80-80 0-99.32 32.836-172.834 45.812-198h12.129C92.194 139.584 85 171.041 85 187c0 12.664.94 22.838 5.531 31.33 4.089 7.564 12.641 16.573 30.183 16.669l.873.022C164.824 235.859 200 271.737 200 315c0 44.112-35.888 80-80 80z" fill="#0067da"/></symbol><symbol id="sale" viewBox="0 -8 334.00076 334"><path d="M33.066 202.691l-2.5 50.18a7.001 7.001 0 0 0 5.164 7.106l48.5 13.125 27.47 42.07a7.001 7.001 0 0 0 8.355 2.715L167 300l46.95 17.883a7 7 0 0 0 8.35-2.711l27.47-42.067 48.5-13.125a6.997 6.997 0 0 0 5.164-7.105l-2.5-50.18 31.52-39.125a7.01 7.01 0 0 0 0-8.785l-31.52-39.125 2.5-50.18a6.997 6.997 0 0 0-5.164-7.105l-48.5-13.125L222.3 3.172A7 7 0 0 0 213.946.46L167 18.348 120.05.465a7.004 7.004 0 0 0-8.35 2.707l-27.47 42.07-48.5 13.125a6.997 6.997 0 0 0-5.164 7.106l2.5 50.18L1.551 154.78a7 7 0 0 0 0 8.785zm12.579-80.328a6.988 6.988 0 0 0 1.539-4.738l-2.356-47.21 45.629-12.353a6.991 6.991 0 0 0 4.031-2.93l25.848-39.577 44.172 16.828c1.605.61 3.379.61 4.984 0l44.172-16.828 25.848 39.578a6.991 6.991 0 0 0 4.031 2.93l45.625 12.351-2.352 47.211a6.988 6.988 0 0 0 1.54 4.738l29.656 36.809-29.657 36.812a6.988 6.988 0 0 0-1.539 4.739l2.352 47.21-45.625 12.352a6.991 6.991 0 0 0-4.031 2.93l-25.848 39.578-44.172-16.828a7.023 7.023 0 0 0-4.984 0l-44.172 16.828-25.848-39.578a6.991 6.991 0 0 0-4.031-2.93l-45.629-12.351 2.356-47.211a6.988 6.988 0 0 0-1.54-4.739l-29.656-36.812zm0 0" fill="#006DF0"/><path d="M128.3 145.063c16.012 0 28.99-12.977 28.99-28.989.003-16.011-12.977-28.992-28.99-28.992s-28.988 12.98-28.988 28.992c.016 16 12.985 28.969 28.989 28.989zm0-43.981c8.278 0 14.99 6.711 14.99 14.992.003 8.278-6.708 14.989-14.99 14.989-8.277 0-14.988-6.711-14.988-14.989.008-8.273 6.715-14.98 14.989-14.992zm0 0M174.953 204.031c0 16.012 12.98 28.992 28.988 28.992 16.012 0 28.993-12.98 28.993-28.992s-12.98-28.988-28.993-28.988c-16.004.02-28.968 12.988-28.988 28.988zm43.98 0c0 8.281-6.71 14.992-14.992 14.992-8.277 0-14.988-6.71-14.988-14.992 0-8.277 6.711-14.988 14.988-14.988 8.278.008 14.98 6.715 14.993 14.988zm0 0M113.7 240.902a6.999 6.999 0 0 0 9.687-2.039l98.953-151.73a6.994 6.994 0 0 0 .39-7 7.002 7.002 0 0 0-12.117-.648l-98.953 151.73a7 7 0 0 0 2.04 9.687zm0 0" fill="#006DF0"/></symbol><symbol id="settings" viewBox="0 0 478.703 478.703"><g fill="#0067da"><path d="M454.2 189.101l-33.6-5.7c-3.5-11.3-8-22.2-13.5-32.6l19.8-27.7c8.4-11.8 7.1-27.9-3.2-38.1l-29.8-29.8c-5.6-5.6-13-8.7-20.9-8.7-6.2 0-12.1 1.9-17.1 5.5l-27.8 19.8c-10.8-5.7-22.1-10.4-33.8-13.9l-5.6-33.2a29.54 29.54 0 0 0-29.2-24.7h-42.1c-14.5 0-26.8 10.4-29.2 24.7l-5.8 34c-11.2 3.5-22.1 8.1-32.5 13.7l-27.5-19.8c-5-3.6-11-5.5-17.2-5.5-7.9 0-15.4 3.1-20.9 8.7l-29.9 29.8c-10.2 10.2-11.6 26.3-3.2 38.1l20 28.1c-5.5 10.5-9.9 21.4-13.3 32.7l-33.2 5.6a29.54 29.54 0 0 0-24.7 29.2v42.1c0 14.5 10.4 26.8 24.7 29.2l34 5.8c3.5 11.2 8.1 22.1 13.7 32.5l-19.7 27.4c-8.4 11.8-7.1 27.9 3.2 38.1l29.8 29.8c5.6 5.6 13 8.7 20.9 8.7 6.2 0 12.1-1.9 17.1-5.5l28.1-20c10.1 5.3 20.7 9.6 31.6 13l5.6 33.6a29.54 29.54 0 0 0 29.2 24.7h42.2c14.5 0 26.8-10.4 29.2-24.7l5.7-33.6c11.3-3.5 22.2-8 32.6-13.5l27.7 19.8c5 3.6 11 5.5 17.2 5.5 7.9 0 15.3-3.1 20.9-8.7l29.8-29.8c10.2-10.2 11.6-26.3 3.2-38.1l-19.8-27.8c5.5-10.5 10.1-21.4 13.5-32.6l33.6-5.6a29.54 29.54 0 0 0 24.7-29.2v-42.1c.2-14.5-10.2-26.8-24.5-29.2zm-2.3 71.3c0 1.3-.9 2.4-2.2 2.6l-42 7c-5.3.9-9.5 4.8-10.8 9.9-3.8 14.7-9.6 28.8-17.4 41.9-2.7 4.6-2.5 10.3.6 14.7l24.7 34.8c.7 1 .6 2.5-.3 3.4l-29.8 29.8c-.7.7-1.4.8-1.9.8-.6 0-1.1-.2-1.5-.5l-34.7-24.7c-4.3-3.1-10.1-3.3-14.7-.6-13.1 7.8-27.2 13.6-41.9 17.4-5.2 1.3-9.1 5.6-9.9 10.8l-7.1 42c-.2 1.3-1.3 2.2-2.6 2.2h-42.1c-1.3 0-2.4-.9-2.6-2.2l-7-42c-.9-5.3-4.8-9.5-9.9-10.8-14.3-3.7-28.1-9.4-41-16.8-2.1-1.2-4.5-1.8-6.8-1.8-2.7 0-5.5.8-7.8 2.5l-35 24.9c-.5.3-1 .5-1.5.5-.4 0-1.2-.1-1.9-.8l-29.8-29.8c-.9-.9-1-2.3-.3-3.4l24.6-34.5c3.1-4.4 3.3-10.2.6-14.8-7.8-13-13.8-27.1-17.6-41.8-1.4-5.1-5.6-9-10.8-9.9l-42.3-7.2c-1.3-.2-2.2-1.3-2.2-2.6v-42.1c0-1.3.9-2.4 2.2-2.6l41.7-7c5.3-.9 9.6-4.8 10.9-10 3.7-14.7 9.4-28.9 17.1-42 2.7-4.6 2.4-10.3-.7-14.6l-24.9-35c-.7-1-.6-2.5.3-3.4l29.8-29.8c.7-.7 1.4-.8 1.9-.8.6 0 1.1.2 1.5.5l34.5 24.6c4.4 3.1 10.2 3.3 14.8.6 13-7.8 27.1-13.8 41.8-17.6 5.1-1.4 9-5.6 9.9-10.8l7.2-42.3c.2-1.3 1.3-2.2 2.6-2.2h42.1c1.3 0 2.4.9 2.6 2.2l7 41.7c.9 5.3 4.8 9.6 10 10.9 15.1 3.8 29.5 9.7 42.9 17.6 4.6 2.7 10.3 2.5 14.7-.6l34.5-24.8c.5-.3 1-.5 1.5-.5.4 0 1.2.1 1.9.8l29.8 29.8c.9.9 1 2.3.3 3.4l-24.7 34.7c-3.1 4.3-3.3 10.1-.6 14.7 7.8 13.1 13.6 27.2 17.4 41.9 1.3 5.2 5.6 9.1 10.8 9.9l42 7.1c1.3.2 2.2 1.3 2.2 2.6v42.1h-.1z"/><path d="M239.4 136.001c-57 0-103.3 46.3-103.3 103.3s46.3 103.3 103.3 103.3 103.3-46.3 103.3-103.3-46.3-103.3-103.3-103.3zm0 179.6c-42.1 0-76.3-34.2-76.3-76.3s34.2-76.3 76.3-76.3 76.3 34.2 76.3 76.3-34.2 76.3-76.3 76.3z"/></g></symbol><symbol id="share" viewBox="0 0 481.6 481.6"><path d="M381.6 309.4c-27.7 0-52.4 13.2-68.2 33.6l-132.3-73.9c3.1-8.9 4.8-18.5 4.8-28.4 0-10-1.7-19.5-4.9-28.5l132.2-73.8c15.7 20.5 40.5 33.8 68.3 33.8 47.4 0 86.1-38.6 86.1-86.1S429 0 381.5 0s-86.1 38.6-86.1 86.1c0 10 1.7 19.6 4.9 28.5l-132.1 73.8c-15.7-20.6-40.5-33.8-68.3-33.8-47.4 0-86.1 38.6-86.1 86.1s38.7 86.1 86.2 86.1c27.8 0 52.6-13.3 68.4-33.9l132.2 73.9c-3.2 9-5 18.7-5 28.7 0 47.4 38.6 86.1 86.1 86.1s86.1-38.6 86.1-86.1-38.7-86.1-86.2-86.1zm0-282.3c32.6 0 59.1 26.5 59.1 59.1s-26.5 59.1-59.1 59.1-59.1-26.5-59.1-59.1 26.6-59.1 59.1-59.1zM100 299.8c-32.6 0-59.1-26.5-59.1-59.1s26.5-59.1 59.1-59.1 59.1 26.5 59.1 59.1-26.6 59.1-59.1 59.1zm281.6 154.7c-32.6 0-59.1-26.5-59.1-59.1s26.5-59.1 59.1-59.1 59.1 26.5 59.1 59.1-26.5 59.1-59.1 59.1z" fill="#0067da"/></symbol><symbol id="shield" viewBox="0 0 512 512"><path d="M421.4 81.2C336.1 81.2 256 11.5 256 11.5S175.9 80.2 90.6 80.2c-27.7 0-46.8-5.2-46.8-5.2v136.3c0 54.1 16.6 107.2 48.9 152.9C125 408.9 178 469.3 251.9 499.4l4.2 1 4.2-2.1c72.8-29.1 126.9-89.5 159.2-135.2 32.3-44.7 48.9-97.8 48.9-152.9V76c-.2 0-23.5 5.2-47 5.2zm2.1 20.8c9.4 0 17.7-1 26-2.1v110.3c0 12.3-.9 24.4-2.7 36.4H265.4V44.9c27.2 19.9 88.5 57.1 158.1 57.1zM64.6 99.9c8.3 1 16.6 1 26 2.1 67.9 0 126.6-34.5 155-54.8v199.4H67.3c-1.8-12-2.7-24.1-2.7-36.4V99.9zm45.8 251.8c-18.9-26-32-54.9-39.3-85.3h174.5v207c-60.9-29.4-106.8-81.5-135.2-121.7zm293.3 0c-28.9 40.9-75.9 94.1-138.4 123.2V266.4H443c-7.2 30.4-20.4 59.3-39.3 85.3z" fill="#006DF0"/></symbol><symbol id="support-blue" viewBox="0 0 512 512"><path d="M366 396c-5.52 0-10 4.48-10 10s4.48 10 10 10 10-4.48 10-10-4.48-10-10-10z" fill="#006DF0"/><path d="M390.622 363.663l-47.53-15.84-17.063-34.127c15.372-15.646 26.045-36.348 29.644-57.941L357.801 243H376c16.542 0 30-13.458 30-30v-63C406 67.29 338.71 0 256 0c-82.922 0-150 67.097-150 150v63c0 13.036 8.361 24.152 20 28.28V253c0 16.542 13.458 30 30 30h8.782a108.487 108.487 0 0 0 16.774 25.974 103.947 103.947 0 0 0 4.406 4.741l-17.054 34.108-47.531 15.841C66.112 382.092 26 440.271 26 502c0 5.523 4.477 10 10 10h440c5.522 0 10-4.477 10-10 0-61.729-40.111-119.908-95.378-138.337zM386 213c0 5.514-4.486 10-10 10h-15.262c2.542-19.69 4.236-40.643 4.917-61.28.02-.582.036-1.148.054-1.72H386v53zm-250 10c-5.514 0-10-4.486-10-10v-53h20.298c.033 1.043.068 2.091.107 3.146l.004.107v.009c.7 20.072 2.372 40.481 4.856 59.737H136V223zm20 40c-5.514 0-10-4.486-10-10v-10h8.198l2.128 12.759a105.57 105.57 0 0 0 1.482 7.241H156zm-9.983-123H126.38C131.445 72.979 187.377 20 256 20c68.318 0 124.496 52.972 129.619 120h-19.635c-.72-55.227-45.693-100-101.033-100h-17.9c-55.339 0-100.315 44.773-101.034 100zM247.05 60h17.9c44.809 0 81.076 36.651 81.05 81.41 0 3.147-.025 5.887-.078 8.38l-.001.098-12.508-1.787c-33.98-4.852-66.064-20.894-90.342-45.172A10.003 10.003 0 0 0 236 100c-26.856 0-52.564 12.236-69.558 32.908C170.63 92.189 205.053 60 247.05 60zm-68.51 203c-5.006-16.653-10.734-65.653-12-97.053l13.459-17.946c12.361-16.476 31.592-26.713 52.049-27.888 26.917 25.616 61.739 42.532 98.537 47.786l14.722 2.104c-.984 20.885-2.995 41.843-5.876 61.118l-.003.02c-.916 6.197-1.638 10.185-3.482 21.324-5.296 31.765-28.998 60.49-60.287 68.313a81.338 81.338 0 0 1-39.313 0c-19.537-4.884-37.451-18.402-49.012-37.778h20.386c4.128 11.639 15.243 20 28.28 20h20c16.575 0 30-13.424 30-30 0-16.542-13.458-30-30-30h-20c-13.327 0-24.278 8.608-28.297 20H178.54zm56.619 78.016A101.171 101.171 0 0 0 256 343.2c5.471 0 10.943-.458 16.353-1.346l-17.67 18.687-19.524-19.525zm5.776 34.063l-31.718 33.542a381.013 381.013 0 0 1-22.389-51.917l11.911-23.822 42.196 42.197zm70.631-45.585l13.604 27.209a380.908 380.908 0 0 1-22.392 51.933l-33.948-33.948 42.736-45.194zM226 273c0-5.521 4.478-10 10-10h20c5.514 0 10 4.486 10 10 0 5.522-4.479 10-10 10h-20c-5.514 0-10-4.486-10-10zM46.4 492c3.963-49.539 36.932-94.567 81.302-109.363l42.094-14.028a400.869 400.869 0 0 0 28.463 61.74l.056.101.001.002a400.974 400.974 0 0 0 27.372 41.799L237.99 492H46.4zm209.6-8.914l-13.562-21.773a10.133 10.133 0 0 0-.486-.711 381.284 381.284 0 0 1-22.532-33.662l35.663-37.714 37.578 37.578A380.863 380.863 0 0 1 270.05 460.6c-.49.653.205-.376-14.05 22.486zM274.01 492l12.301-19.748a400.826 400.826 0 0 0 27.564-42.132c.05-.088.097-.178.147-.266l.018-.032a400.543 400.543 0 0 0 28.164-61.213l42.093 14.028c44.371 14.796 77.34 59.824 81.303 109.363H274.01z" fill="#006DF0"/><path d="M435.546 451.531c-6.683-13.377-16.472-25.261-28.309-34.367-4.378-3.369-10.656-2.55-14.023 1.828-3.368 4.378-2.549 10.656 1.828 14.024 9.454 7.273 17.272 16.766 22.611 27.453 2.473 4.949 8.483 6.941 13.415 4.477 4.94-2.468 6.945-8.474 4.478-13.415z" fill="#006DF0"/></symbol><symbol id="support" viewBox="0 0 422.692 422.692"><path d="M271.786 289.626v-7.36c2.08-1.68 4.08-3.52 6-5.44a109.36 109.36 0 0 0 27.68-60.96 53.762 53.762 0 0 0 34.72-20.64c11.6-16.4 12.64-40 2.96-69.6a8.002 8.002 0 0 0-3.2-4.16l-4.4-2.96a108.478 108.478 0 0 0-25.92-73.04c-21.52-24.24-54.56-36.48-98.32-36.64-43.68 0-76.8 12.4-98.32 36.32a108.478 108.478 0 0 0-25.92 73.04l-4.4 2.96a8.002 8.002 0 0 0-3.2 4.16c-9.68 29.76-8.64 53.2 2.96 69.6a53.918 53.918 0 0 0 34.72 20.88 109.44 109.44 0 0 0 27.76 61.04 78.037 78.037 0 0 0 6 5.44v7.36c-30.64 5.92-152.96 34.64-150.88 116.24a8 8 0 0 0 8 8h406.64a8 8 0 0 0 8-8c2.08-81.6-120.24-110.32-150.88-116.24zm-159.44-91.68a34.72 34.72 0 0 1-16.96-12.4l.4.08c-8-11.68-8.72-29.36-1.6-52.72l5.84-3.92a8 8 0 0 0 3.52-7.44 94.558 94.558 0 0 1 21.76-65.84c18.08-20.48 47.12-30.72 86-30.88 38.88-.16 67.92 10.4 86.32 30.88a94.558 94.558 0 0 1 21.76 65.84 8 8 0 0 0 3.52 7.44l5.84 3.92c7.12 23.28 6.64 41.04-1.6 52.72a34.886 34.886 0 0 1-17.04 12.4 53.277 53.277 0 0 0 13.04-40 37.441 37.441 0 0 0-12.88-22.4c-3.44-80-59.52-88.96-83.68-88.96-5.114-.015-10.222.36-15.28 1.12a100.705 100.705 0 0 0-15.28-1.12c-24 0-80 8.8-83.68 88.96a37.44 37.44 0 0 0-13.04 22.32 53.2 53.2 0 0 0 13.04 40zm182-65.6a164.805 164.805 0 0 1-95.6-24 8 8 0 0 0-10.4 1.04c-16 17.2-45.2 21.2-59.28 22.08 4.32-56.56 38.56-68.88 67.36-68.88a77.331 77.331 0 0 1 13.68 1.12 7.982 7.982 0 0 0 3.2 0 77.71 77.71 0 0 1 13.68-1.12c28.56 0 62.96 12.64 66.96 69.68l.4.08zm-162.48 67.12l.32.08a7.997 7.997 0 0 0-2-5.36c-10.96-12.56-16-24-14.64-33.44a21.2 21.2 0 0 1 7.28-13.52c10.56 0 48-2 72-22.72a180.395 180.395 0 0 0 88.8 24c5.36 0 10.8 0 16.48-.88a21.118 21.118 0 0 1 7.2 13.12c1.36 9.28-3.68 20.88-14.64 33.44a7.997 7.997 0 0 0-2 5.36v4.16l-46.56 24.96c-9.24-8.748-23.823-8.349-32.571.891-8.748 9.24-8.349 23.823.891 32.571 9.24 8.748 23.823 8.349 32.571-.891a23.039 23.039 0 0 0 6.309-15.851c.036-.72.036-1.44 0-2.16l36.72-19.68a88.007 88.007 0 0 1-21.44 42.24 71.28 71.28 0 0 1-53.04 19.84h-4a71.44 71.44 0 0 1-52.96-19.76c-25.28-25.2-24.72-66-24.72-66.4zm103.44 45.92a7.12 7.12 0 1 1-14.24 0 7.12 7.12 0 0 1 14.24 0zm-32 152H16.266c6.32-60.08 104-85.2 134.56-91.68v14.32c0 18.16 22.08 32 52.48 34.32v43.04zm-36.48-77.36V292.426a96.721 96.721 0 0 0 42.48 8.96h4a96.721 96.721 0 0 0 42.48-8.96v27.6c0 7.6-17.36 18.56-44.48 18.56s-44.48-10.96-44.48-18.56zm52.48 77.6v-43.36c30.4-2.08 52.48-16 52.48-34.32v-14c30.8 6.4 128 31.52 134.56 91.68h-187.04z" fill="#FFF"/></symbol><symbol id="twitter" viewBox="0 0 512 512"><path d="M512 97.248c-19.04 8.352-39.328 13.888-60.48 16.576 21.76-12.992 38.368-33.408 46.176-58.016-20.288 12.096-42.688 20.64-66.56 25.408C411.872 60.704 384.416 48 354.464 48c-58.112 0-104.896 47.168-104.896 104.992 0 8.32.704 16.32 2.432 23.936-87.264-4.256-164.48-46.08-216.352-109.792-9.056 15.712-14.368 33.696-14.368 53.056 0 36.352 18.72 68.576 46.624 87.232-16.864-.32-33.408-5.216-47.424-12.928v1.152c0 51.008 36.384 93.376 84.096 103.136-8.544 2.336-17.856 3.456-27.52 3.456-6.72 0-13.504-.384-19.872-1.792 13.6 41.568 52.192 72.128 98.08 73.12-35.712 27.936-81.056 44.768-130.144 44.768-8.608 0-16.864-.384-25.12-1.44C46.496 446.88 101.6 464 161.024 464c193.152 0 298.752-160 298.752-298.688 0-4.64-.16-9.12-.384-13.568 20.832-14.784 38.336-33.248 52.608-54.496z"/></symbol><symbol id="vk" viewBox="0 0 511.962 511.962"><path d="M507.399 370.471c-1.376-2.304-9.888-20.8-50.848-58.816-42.88-39.808-37.12-33.344 14.528-102.176 31.456-41.92 44.032-67.52 40.096-78.464-3.744-10.432-26.88-7.68-26.88-7.68l-76.928.448s-5.696-.768-9.952 1.76c-4.128 2.496-6.784 8.256-6.784 8.256s-12.192 32.448-28.448 60.032c-34.272 58.208-48 61.28-53.6 57.664-13.024-8.416-9.76-33.856-9.76-51.904 0-56.416 8.544-79.936-16.672-86.016-8.384-2.016-14.528-3.36-35.936-3.584-27.456-.288-50.72.096-63.872 6.528-8.768 4.288-15.52 13.856-11.392 14.4 5.088.672 16.608 3.104 22.72 11.424 7.904 10.72 7.616 34.848 7.616 34.848s4.544 66.4-10.592 74.656c-10.4 5.664-24.64-5.888-55.2-58.72-15.648-27.04-27.488-56.96-27.488-56.96s-2.272-5.568-6.336-8.544c-4.928-3.616-11.84-4.768-11.84-4.768l-73.152.448s-10.976.32-15.008 5.088c-3.584 4.256-.288 13.024-.288 13.024s57.28 133.984 122.112 201.536c59.488 61.92 127.008 57.856 127.008 57.856h30.592s9.248-1.024 13.952-6.112c4.352-4.672 4.192-13.44 4.192-13.44s-.608-41.056 18.464-47.104c18.784-5.952 42.912 39.68 68.48 57.248 19.328 13.28 34.016 10.368 34.016 10.368l68.384-.96s35.776-2.208 18.816-30.336z"/></symbol></svg>